<?xml version="1.0" encoding="UTF-8" standalone="no"?>
<svg
   xmlns:dc="http://purl.org/dc/elements/1.1/"
   xmlns:cc="http://creativecommons.org/ns#"
   xmlns:rdf="http://www.w3.org/1999/02/22-rdf-syntax-ns#"
   xmlns:svg="http://www.w3.org/2000/svg"
   xmlns="http://www.w3.org/2000/svg"
   xmlns:sodipodi="http://sodipodi.sourceforge.net/DTD/sodipodi-0.dtd"
   xmlns:inkscape="http://www.inkscape.org/namespaces/inkscape"
   width="250"
   height="106"
   viewBox="0 0 250 106"
   fill="none"
   version="1.1"
   id="svg20"
   sodipodi:docname="logo.svg"
   inkscape:version="0.92.3 (2405546, 2018-03-11)">
  <metadata
     id="metadata26">
    <rdf:RDF>
      <cc:Work
         rdf:about="">
        <dc:format>image/svg+xml</dc:format>
        <dc:type
           rdf:resource="http://purl.org/dc/dcmitype/StillImage" />
      </cc:Work>
    </rdf:RDF>
  </metadata>
  <defs
     id="defs24" />
  <sodipodi:namedview
     pagecolor="#ffffff"
     bordercolor="#666666"
     borderopacity="1"
     objecttolerance="10"
     gridtolerance="10"
     guidetolerance="10"
     inkscape:pageopacity="0"
     inkscape:pageshadow="2"
     inkscape:window-width="2560"
     inkscape:window-height="1025"
     id="namedview22"
     showgrid="false"
     inkscape:snap-bbox="true"
     inkscape:bbox-nodes="true"
     inkscape:zoom="3.3785562"
     inkscape:cx="116.63266"
     inkscape:cy="65.337713"
     inkscape:window-x="0"
     inkscape:window-y="27"
     inkscape:window-maximized="1"
     inkscape:current-layer="svg20" />
  <path
     d="M93.93 94.2987H76.8668L87.1185 59.4013H78.4493L64.2071 106H47.1439L75.3532 11.6325H92.4163L82.7839 44.7403H91.4531L105.145 0H122.208L93.93 94.2987Z"
     fill="#E02041"
     id="path2" />
  <path
     d="M123.584 11.6325H156.128L151.243 26.5H136.45L131.084 44.6714H145.945L141.267 59.3325H126.749L121.038 78.5364H136.863L131.152 94.2299H99.2278L123.584 11.6325Z"
     fill="#E02041"
     id="path4" />
  <path
     d="M151.312 106H134.111L161.563 11.6325H192.8C196.515 11.6325 198.992 12.6649 200.299 14.7987C201.607 16.9325 201.813 19.3416 200.988 22.0948L192.731 50.1779C192.318 51.4169 191.561 52.5182 190.392 53.5507C189.222 54.5831 187.571 55.0649 185.438 55.0649C186.745 55.2714 187.846 56.0974 188.741 57.5429C189.635 58.9883 189.635 61.1909 188.741 64.1507L179.865 94.2987H162.733L172.228 61.8792C172.434 61.1909 172.503 60.5714 172.297 59.952C172.09 59.3325 171.471 59.0571 170.439 59.0571H164.728L151.312 106ZM174.154 46.874C174.98 46.874 175.737 46.6675 176.494 46.2546C177.182 45.8416 177.732 45.0156 178.145 43.7078L182.686 28.3584C183.374 26.087 182.479 24.9169 180.071 24.9169H174.705L168.237 46.874H174.154Z"
     fill="#E02041"
     id="path6" />
  <path
     d="M242.957 11.6325C245.641 11.6325 247.567 12.5961 248.806 14.5234C250.044 16.4507 250.319 18.6533 249.631 21.0623L230.642 85.5572C229.61 88.9987 227.821 91.2701 225.344 92.5091C222.867 93.7481 220.184 94.2987 217.363 94.2987H196.997C195.552 94.2987 194.245 94.0234 193.006 93.5416C191.768 93.0598 190.805 92.3026 189.979 91.339C189.153 90.3753 188.672 89.1364 188.397 87.7598C188.121 86.3831 188.259 84.8 188.809 83.0104L207.455 19.6857C208.074 17.2766 209.313 15.2805 211.17 13.8351C213.028 12.3896 215.367 11.6325 218.188 11.6325H242.957ZM225.069 24.9169C224.243 24.9169 223.624 25.1234 223.28 25.4675C222.867 25.8805 222.661 26.3623 222.454 26.913L207.249 78.3987C206.836 79.7753 207.386 80.4637 208.831 80.4637H213.235C214.679 80.4637 215.574 79.7753 215.987 78.3987L231.123 26.9818C231.467 25.5364 230.917 24.8481 229.403 24.8481H225.069V24.9169Z"
     fill="#E02041"
     id="path8" />
  <g
     aria-label="A"
     transform="skewX(-16.532074)"
     style="font-style:normal;font-variant:normal;font-weight:normal;font-stretch:normal;font-size:47.42854691px;line-height:1.25;font-family:Uroob;-inkscape-font-specification:Uroob;letter-spacing:0px;word-spacing:0px;fill:#41414d;fill-opacity:1;stroke:none;stroke-width:1.18571377"
     id="text4611">
    <path
       d="M 66.627386,50.384399 H 60.435703 V 37.786192 h -4.800219 v 12.598207 h -6.191683 l 0,-24.779563 c 0,-1.404947 0.277243,-2.800297 1.481484,-3.742075 1.142485,-0.9109 2.748797,-1.144362 4.169183,-1.144362 h 6.021202 c 1.389509,0 2.640066,0.45545 3.751672,1.36635 1.173363,0.972655 1.760044,2.146018 1.760044,3.520087 z M 60.435703,34.219787 v -7.850721 c 0,-0.555803 -0.162109,-1.026692 -0.486328,-1.412667 -0.308779,-0.385975 -0.75651,-0.578962 -1.343191,-0.578962 H 57.37237 c -0.602121,0 -1.042132,0.192987 -1.320033,0.578962 -0.277902,0.385975 -0.416853,0.856864 -0.416853,1.412667 l 0,7.850721 z"
       style="stroke-width:1.18571377"
       id="path4613"
       inkscape:connector-curvature="0"
       sodipodi:nodetypes="ccccccscsscsccscsssscc" />
  </g>
  <g
     aria-label="26"
     transform="matrix(1.0023259,0,-0.29501279,1.0023259,15.321367,33.14851)"
     style="font-style:normal;font-weight:normal;font-size:53.71880341px;line-height:1.25;font-family:sans-serif;letter-spacing:0px;word-spacing:0px;fill:#41414d;fill-opacity:1;stroke:none;stroke-width:1.34297013"
     id="text4618">
    <path
       d="m 20.182814,34.77928 c 0,1.818605 -0.69072,3.453601 -2.072161,4.904988 -1.363954,1.451387 -4.509091,2.179344 -5.82103,2.936723 -0.404445,0.215778 -1.374683,0.9495 -1.988946,1.863346 -0.7344372,1.049195 -1.1016556,2.20331 -1.1016556,3.462345 H 19.527067 v 4.065632 H 2.3202629 v -5.744345 c 0,-1.748659 0.6456963,-3.849812 2.3768687,-5.563498 1.6437394,-1.608766 2.229069,-1.741996 3.8035234,-2.410728 1.1625783,-0.480403 2.302818,-0.699122 2.862389,-0.943935 1.294008,-0.594544 1.941012,-1.477617 1.941012,-2.649218 v -5.639425 c 0,-0.82187 -0.253368,-1.44491 -0.655747,-1.941011 -0.366082,-0.360411 -0.955455,-0.679145 -1.526055,-0.708275 -0.541215,-0.02336 -0.874134,3.41e-4 -1.3637581,0.26264 -0.4896245,0.244812 -0.6818806,0.786623 -0.7168538,1.41614 H 2.3464928 c 0.034973,-1.731172 0.374739,-3.260605 1.476394,-4.292314 1.0666819,-1.014222 2.7029009,-1.373341 4.4515599,-1.373341 H 14.33355 c 1.731173,0 3.147586,0.568314 4.249241,1.704943 1.066682,1.101655 1.600023,2.518068 1.600023,4.249241 z"
       style="font-style:normal;font-variant:normal;font-weight:normal;font-stretch:normal;font-family:Uroob;-inkscape-font-specification:Uroob;fill:#41414d;fill-opacity:1;stroke-width:1.34297013"
       id="path4620"
       inkscape:connector-curvature="0"
       sodipodi:nodetypes="scccccccscccssccccccsscss" />
    <path
       d="m 29.396033,33.939923 c 0.874329,-0.314758 1.588784,-0.419814 2.201808,-0.472137 h 1.850767 c 1.591279,0 4.586487,0.385115 6.223011,1.626252 1.259035,1.084169 1.888552,2.430636 1.888552,4.039403 v 7.239448 c 0,1.573793 -0.417206,3.286522 -1.78116,4.405664 -1.259035,1.049195 -4.966449,1.207531 -6.592702,1.207531 h -1.901724 c -1.661226,0 -4.46423,-0.149592 -6.459081,-1.547563 -1.38144,-1.101655 -2.07216,-2.456866 -2.07216,-4.065632 V 28.352958 c 0,-1.661226 0.193555,-3.273398 1.155317,-4.39254 1.014222,-1.224061 2.613042,-1.614103 4.221809,-1.614103 h 12.721494 v 4.118091 h -9.33131 c -1.416414,0 -2.124621,0.612031 -2.124621,1.836092 z m 0.10492,11.855908 c 0,1.416414 0.612031,2.124621 1.836092,2.124621 h 1.534505 c 0.629517,0 1.110399,-0.201096 1.442644,-0.603287 0.332245,-0.419679 0.498368,-0.92679 0.498368,-1.521334 v -6.059103 c 0,-0.612031 -0.166123,-1.119142 -0.498368,-1.521333 -0.332245,-0.402192 -0.813127,-0.603288 -1.442644,-0.603288 h -1.534505 c -1.224061,0 -1.836092,0.708207 -1.836092,2.124621 z"
       style="font-style:normal;font-variant:normal;font-weight:normal;font-stretch:normal;font-family:Uroob;-inkscape-font-specification:Uroob;fill:#41414d;fill-opacity:1;stroke-width:1.34297013"
       id="path4622"
       inkscape:connector-curvature="0"
       sodipodi:nodetypes="ccscsscsscsscsccsscssscsscssss" />
  </g>
</svg>
